<?xml version="1.0" encoding="utf-8"?>
<!-- Generator: Adobe Illustrator 17.0.0, SVG Export Plug-In . SVG Version: 6.00 Build 0)  -->
<!DOCTYPE svg PUBLIC "-//W3C//DTD SVG 1.1//EN" "http://www.w3.org/Graphics/SVG/1.1/DTD/svg11.dtd">
<svg version="1.1" id="Capa_1" xmlns="http://www.w3.org/2000/svg" xmlns:xlink="http://www.w3.org/1999/xlink" x="0px" y="0px"
	 width="512px" height="512px" viewBox="0 0 512 512" enable-background="new 0 0 512 512" xml:space="preserve">
<path fill="#FFFFFF" d="M483.667,138.828c-17.928-34.77-44.073-65.474-75.604-88.792c-4.628-3.421-11.15-2.443-14.573,2.183
	s-2.443,11.15,2.183,14.573c28.977,21.429,53,49.64,69.475,81.587c17.261,33.475,26.013,69.683,26.013,107.622
	c0,129.667-105.493,235.161-235.161,235.161S20.838,385.668,20.838,255.999S126.332,20.838,255.999,20.838
	c5.753,0,10.419-4.666,10.419-10.419S261.752,0,255.999,0C114.841,0,0,114.841,0,255.999s114.841,255.999,255.999,255.999
	s255.999-114.841,255.999-255.999C511.998,215.288,502.203,174.772,483.667,138.828z"/>
<path fill="#FFFFFF" d="M190.494,137.131c-3.258,1.853-5.27,5.312-5.27,9.058v228.654c0,5.755,4.666,10.419,10.419,10.419
	s10.419-4.664,10.419-10.419V164.518l154.26,91.832l-113.436,73.085c-4.836,3.117-6.232,9.565-3.115,14.401
	c3.119,4.838,9.565,6.234,14.403,3.115l127.573-82.195c3.032-1.954,4.838-5.336,4.774-8.943c-0.064-3.607-1.988-6.923-5.088-8.769
	l-184.46-109.809C197.749,135.32,193.752,135.278,190.494,137.131z"/>
</svg>
